{"title":"The Avengers 2012 720p BRRip x264 6ch AC3 - ViZNU [P2PDL]","uid":7561234,"size":1468726254,"categoryP":"video","categoryS":"hd___movies","magnet":"?xt=urn:btih:aa3ab979b810d44bcd18babfe51c9be03b1508e8&amp;dn=The+Avengers+2012+720p+BRRip+x264+6ch+AC3+-+ViZNU+%5BP2PDL%5D&amp;tr=udp%3A%2F%2Ftracker.openbittorrent.com%3A80&amp;tr=udp%3A%2F%2Fopen.demonii.com%3A1337&amp;tr=udp%3A%2F%2Ftracker.coppersurfer.tk%3A6969&amp;tr=udp%3A%2F%2Fexodus.desync.com%3A6969","seeders":0,"leechers":0,"uploader":"ValidusVyto","files":-1,"time":1345744375,"description":"_________________________  Visit us at _________________________\n  &lt;a href=&quot;\nhttp://p2pdl.com&quot; rel=&quot;nofollow&quot; target=&quot;_NEW&quot;&gt;\nhttp://p2pdl.com&lt;/a&gt;  ____________________________ &lt;a href=&quot; http://p2pdl.com&quot; rel=&quot;nofollow&quot; target=&quot;_NEW&quot;&gt; http://p2pdl.com&lt;/a&gt;\n\n &lt;a href=&quot;\nhttp://i.imgur.com/nnpHL.jpg&quot; rel=&quot;nofollow&quot; target=&quot;_NEW&quot;&gt;\nhttp://i.imgur.com/nnpHL.jpg&lt;/a&gt;\n\n\nRelease Title: The Avengers (2012)\n\n\t\t\t\t\t\nGenre: Action | Sci-Fi | Thriller\nIMDb Rating: 8.6/10 &lt;a href=&quot;\nhttp://cinemahouse.in/movie/90/The+Avengerss&quot; rel=&quot;nofollow&quot; target=&quot;_NEW&quot;&gt;\nhttp://cinemahouse.in/movie/90/The+Avengerss&lt;/a&gt;\n\n\nPlot: Nick Fury of S.H.I.E.L.D. brings together a team of super humans to form The Avengers to help save the Earth from Loki and his army.\n\n\nDirector:  Joss Whedon\n\n\nStars: Robert Downey Jr., Chris Evans and Scarlett Johansson.\n\n\nRated: PG-13 for intense sequences of sci-fi violence and action throughout, and a mild drug reference.\n\n\nGeneral\nFormat                         : Matroska\nFormat version                 : Version 2\nFile size                      : 1.34 GiB\nDuration                       : 2h 22mn\nOverall bit rate               : 1 344 Kbps\nMovie name                     : The Avengers 2012 720p BRRip x264 6ch AC3 - ViZNU [P2PDL]\nSource                         : HDCLUB(Thanks)\n\nVideo\nID                             : 1\nFormat                         : AVC\nFormat/Info                    : Advanced Video Codec\nFormat profile                 : &lt;a class=&quot;__cf_email__&quot; href=&quot;/cdn-cgi/l/email-protection&quot; data-cfemail=&quot;6e260709062e225a405f&quot;&gt;[email&amp;#160;protected]&lt;/a&gt;&lt;script data-cfhash='f9e31' type=&quot;text/javascript&quot;&gt;\n/* &lt;![CDATA[ */!function(){try{var t=&quot;currentScript&quot;in document?document.currentScript:function(){for(var t=document.getElementsByTagName(&quot;script&quot;),e=t.length;e--;)if(t[e].getAttribute(&quot;data-cfhash&quot;))return t[e]}();if(t&amp;&amp;t.previousSibling){var e,r,n,i,c=t.previousSibling,a=c.getAttribute(&quot;data-cfemail&quot;);if(a){for(e=&quot;&quot;,r=parseInt(a.substr(0,2),16),n=2;a.length-n;n+=2)i=parseInt(a.substr(n,2),16)^r,e+=String.fromCharCode(i);e=document.createTextNode(e),c.parentNode.replaceChild(e,c)}t.parentNode.removeChild(t);}}catch(u){}}()/* ]]&gt; */&lt;/script&gt;\nCodec ID                       : V_MPEG4/ISO/AVC\nDuration                       : 2h 22mn\nBit rate                       : 1 023 Kbps\nWidth                          : 1 280 pixels\nHeight                         : 720 pixels\nDisplay aspect ratio           : 16:9\nFrame rate                     : 23.976 fps\nColor space                    : YUV\nChroma subsampling             : 4:2:0\nBit depth                      : 8 bits\nScan type                      : Progressive\nBits/(Pixel*Frame)             : 0.046\nStream size                    : 1 019 MiB (74%)\nWriting library                : x264 \nDefault                        : Yes\n\n\nAudio\nID                             : 2\nFormat                         : AC-3\nFormat/Info                    : Audio Coding 3\nCodec ID                       : A_AC3\nDuration                       : 2h 22mn\nBit rate mode                  : Constant\nBit rate                       : 320 Kbps\nChannel(s)                     : 6 channels\nChannel positions              : Front: L C R, Side: L R, LFE\nSampling rate                  : 44.1 KHz\nBit depth                      : 16 bits\nCompression mode               : Lossy\nStream size                    : 327 MiB (24%)\nDefault                        : Yes\n\n\nSubtitle                       : No\n\n\nScreens:\n\n &lt;a href=&quot;\nhttp://i.imgur.com/sOABP.png&quot; rel=&quot;nofollow&quot; target=&quot;_NEW&quot;&gt;\nhttp://i.imgur.com/sOABP.png&lt;/a&gt;\n &lt;a href=&quot;\nhttp://i.imgur.com/2tcw4.jpg&quot; rel=&quot;nofollow&quot; target=&quot;_NEW&quot;&gt;\nhttp://i.imgur.com/2tcw4.jpg&lt;/a&gt;\n &lt;a href=&quot;\nhttp://i.imgur.com/qnqLt.png&quot; rel=&quot;nofollow&quot; target=&quot;_NEW&quot;&gt;\nhttp://i.imgur.com/qnqLt.png&lt;/a&gt;\n &lt;a href=&quot;\nhttp://i.imgur.com/9MOLb.jpg&quot; rel=&quot;nofollow&quot; target=&quot;_NEW&quot;&gt;\nhttp://i.imgur.com/9MOLb.jpg&lt;/a&gt;\n &lt;a href=&quot;\nhttp://i.imgur.com/f8Zda.jpg&quot; rel=&quot;nofollow&quot; target=&quot;_NEW&quot;&gt;\nhttp://i.imgur.com/f8Zda.jpg&lt;/a&gt;\n &lt;a href=&quot;\nhttp://i.imgur.com/tOw5K.png&quot; rel=&quot;nofollow&quot; target=&quot;_NEW&quot;&gt;\nhttp://i.imgur.com/tOw5K.png&lt;/a&gt;\n\n\n\n------------------------------------------------------------------------\n\n\nRecommend you to use VLC player. Check sample to be sure. Enjoy!\n\n\nGreets to: srkfan, Vitamin_X, MgB, staff members at ExtraTorrent, TPB,KAT, 1337x, PublicHD, Ahashare, SilverTorrent, TorrentMafia, P2PDL, and all others\n\n\nEncoder Notes: Looking For Early Access To Anything You Can Provide DVDScr, R5, DVDRips, BluRay, Direct Audio, Early Music Releases, Seedboxes, Links, Dedicated Servers anything u can provide, Advance / Promo CDs/DVDs. If You Got anything to offer contact me at &quot;&lt;a class=&quot;__cf_email__&quot; href=&quot;/cdn-cgi/l/email-protection&quot; data-cfemail=&quot;51323e3f253032251125383f283c7f3424&quot;&gt;[email&amp;#160;protected]&lt;/a&gt;&lt;script data-cfhash='f9e31' type=&quot;text/javascript&quot;&gt;\n/* &lt;![CDATA[ */!function(){try{var t=&quot;currentScript&quot;in document?document.currentScript:function(){for(var t=document.getElementsByTagName(&quot;script&quot;),e=t.length;e--;)if(t[e].getAttribute(&quot;data-cfhash&quot;))return t[e]}();if(t&amp;&amp;t.previousSibling){var e,r,n,i,c=t.previousSibling,a=c.getAttribute(&quot;data-cfemail&quot;);if(a){for(e=&quot;&quot;,r=parseInt(a.substr(0,2),16),n=2;a.length-n;n+=2)i=parseInt(a.substr(n,2),16)^r,e+=String.fromCharCode(i);e=document.createTextNode(e),c.parentNode.replaceChild(e,c)}t.parentNode.removeChild(t);}}catch(u){}}()/* ]]&gt; */&lt;/script&gt;&quot;\n","torrent":{"xt":"urn:btih:aa3ab979b810d44bcd18babfe51c9be03b1508e8","amp;dn":"The+Avengers+2012+720p+BRRip+x264+6ch+AC3+-+ViZNU+%5BP2PDL%5D","amp;tr":["udp%3A%2F%2Ftracker.openbittorrent.com%3A80","udp%3A%2F%2Fopen.demonii.com%3A1337","udp%3A%2F%2Ftracker.coppersurfer.tk%3A6969","udp%3A%2F%2Fexodus.desync.com%3A6969"],"infoHash":"aa3ab979b810d44bcd18babfe51c9be03b1508e8","infoHashBuffer":{"type":"Buffer","data":[170,58,185,121,184,16,212,75,205,24,186,191,229,28,155,224,59,21,8,232]},"announce":[],"urlList":[]}}